<?xml version="1.0" encoding="UTF-8" standalone="no" ?>
<!DOCTYPE svg PUBLIC "-//W3C//DTD SVG 1.1//EN" "http://www.w3.org/Graphics/SVG/1.1/DTD/svg11.dtd">
<svg xmlns="http://www.w3.org/2000/svg" xmlns:xlink="http://www.w3.org/1999/xlink" version="1.1" width="1080" height="1080" viewBox="0 0 1080 1080" xml:space="preserve">
<desc>Created with Fabric.js 5.2.4</desc>
<defs>
</defs>
<g transform="matrix(1 0 0 1 540 540)" id="2331e7f6-c0ad-4706-ad1e-6179c68a8ab6"  >
<rect style="stroke: none; stroke-width: 1; stroke-dasharray: none; stroke-linecap: butt; stroke-dashoffset: 0; stroke-linejoin: miter; stroke-miterlimit: 4; fill: rgb(255,255,255); fill-rule: nonzero; opacity: 1; visibility: hidden;" vector-effect="non-scaling-stroke"  x="-540" y="-540" rx="0" ry="0" width="1080" height="1080" />
</g>
<g transform="matrix(1 0 0 1 540 540)" id="5ea45f6f-6886-4a19-84b2-b7b57a3ab662"  >
</g>
<g transform="matrix(0.9 0 0 0.78 544.05 514.15)" id="bc0fa37e-a688-4fdd-991c-841a4640b758"  >
<path style="stroke: rgb(0,0,0); stroke-width: 0; stroke-dasharray: none; stroke-linecap: butt; stroke-dashoffset: 0; stroke-linejoin: miter; stroke-miterlimit: 4; fill: rgb(248,249,250); fill-rule: nonzero; opacity: 1;" vector-effect="non-scaling-stroke"  transform=" translate(-17, -16.32)" d="M 32.9117 19.375 C 32.4103 17.6472 31.5257 16.0488 30.269 14.7562 C 29.1584 13.6145 27.794 12.7235 26.3616 12.0408 C 25.1576 11.4668 23.9097 11.0021 22.6459 10.5813 C 23.2678 8.88633 23.6367 7.13064 23.2519 5.2991 C 22.7976 3.13304 21.1584 1.3486 18.9445 0.962976 C 16.78 0.58613 14.3065 1.09312 12.4279 2.22605 C 10.5357 3.36697 9.08339 5.42605 9.13449 7.6991 C 9.16962 9.26876 9.86662 10.6197 10.7936 11.8221 C 8.25225 12.1502 5.76762 12.9973 3.8794 14.7801 C 1.24546 17.2672 0.372809 21.054 0.574805 24.5606 C 0.64267 25.7342 0.847061 26.9079 1.08499 28.0576 C 1.3261 29.2209 1.63748 30.3402 2.16842 31.4037 C 2.46063 31.9881 3.34526 31.6831 3.35405 31.0827 C 3.38039 29.1809 2.83828 27.3095 2.70335 25.4117 C 2.58279 23.7278 2.59796 22.1191 3.00674 20.5318 C 3.37002 19.1211 3.98399 17.7957 4.98119 16.7674 C 5.96802 15.7494 7.19756 15.1035 8.53009 14.7107 C 8.94766 14.5877 9.37241 14.4871 9.80035 14.4057 C 10.0063 14.3666 10.2123 14.333 10.4191 14.3019 C 10.4295 14.3003 10.4654 14.2955 10.4958 14.2923 C 10.6123 14.2787 10.7289 14.2652 10.8455 14.2532 C 11.7189 14.1662 12.5972 14.1478 13.4746 14.1726 C 14.6067 14.2053 15.0874 12.7897 14.3664 12.0185 C 14.0758 11.7071 13.7868 11.3941 13.5089 11.0708 C 13.3828 10.9239 13.2582 10.7754 13.1369 10.6245 C 13.1193 10.6021 13.057 10.5207 13.0307 10.4863 C 12.966 10.3985 12.9014 10.3107 12.8391 10.2213 C 12.6235 9.91148 12.4239 9.58972 12.253 9.2528 C 12.2043 9.15699 12.1572 9.05958 12.1133 8.96058 C 12.1077 8.94302 12.1006 8.92146 12.091 8.89431 C 12.0199 8.68194 11.9521 8.47036 11.9018 8.2516 C 11.885 8.18054 11.8714 8.10868 11.8586 8.03763 C 11.8546 8.00649 11.8491 7.96577 11.8491 7.94581 C 11.8451 7.73743 11.8379 7.53304 11.8499 7.32465 C 11.8499 7.31427 11.8507 7.30629 11.8515 7.29751 C 11.873 7.18334 11.8962 7.06996 11.9257 6.95659 C 11.9465 6.87755 11.9696 6.7985 11.9952 6.72026 C 12.0119 6.66916 12.079 6.49591 12.0718 6.50389 C 12.1461 6.34262 12.2315 6.18613 12.3233 6.03443 C 12.3664 5.96337 12.4111 5.89312 12.4574 5.82445 C 12.4686 5.80769 12.6115 5.62485 12.6067 5.62485 C 12.693 5.52345 12.7816 5.42365 12.8758 5.32864 C 12.9636 5.24002 13.0538 5.15379 13.1473 5.07076 C 13.1736 5.04761 13.3229 4.92785 13.3341 4.91587 C 13.6311 4.7003 13.9481 4.51028 14.2754 4.34661 C 14.3824 4.29312 14.491 4.24122 14.6004 4.19332 C 14.6195 4.18613 14.6419 4.17814 14.6706 4.16777 C 14.899 4.08393 15.1273 4.00569 15.3612 3.93783 C 15.7652 3.82046 16.174 3.73503 16.5884 3.66318 C 16.6147 3.65839 16.6347 3.65519 16.653 3.652 C 16.7704 3.63763 16.8878 3.62645 17.0051 3.61687 C 17.2247 3.6001 17.4451 3.59132 17.6646 3.59451 C 17.8491 3.59691 18.0367 3.60409 18.2211 3.62405 C 18.253 3.62964 18.3153 3.64082 18.3377 3.64641 C 18.463 3.67834 18.59 3.7007 18.7145 3.73583 C 18.7848 3.75579 19.0914 3.87475 19.0475 3.8484 C 19.1433 3.89471 19.2383 3.94421 19.3293 3.9993 C 19.3716 4.02485 19.5552 4.15419 19.5329 4.13024 C 19.6367 4.21807 19.7341 4.31308 19.8275 4.41208 C 19.877 4.46477 19.9225 4.51906 19.9688 4.57415 C 19.984 4.59491 20 4.61727 20.0079 4.63084 C 20.1069 4.7993 20.2083 4.96298 20.3002 5.13543 C 20.3129 5.15938 20.3233 5.17775 20.3313 5.19292 C 20.3728 5.2991 20.4111 5.40689 20.4455 5.51547 C 20.5109 5.72465 20.5588 5.93543 20.6035 6.1494 C 20.6075 6.16697 20.6107 6.18134 20.6131 6.19491 C 20.6251 6.31228 20.6347 6.43044 20.6403 6.5486 C 20.6507 6.78413 20.6459 7.02046 20.6291 7.25599 C 20.6235 7.33264 20.6155 7.40928 20.6075 7.48593 C 20.6035 7.48833 20.5572 7.78693 20.5493 7.82685 C 20.4447 8.35619 20.2898 8.87355 20.1069 9.38054 C 20.0207 9.61926 19.9289 9.85559 19.8315 10.0895 C 19.8163 10.1239 19.7844 10.1981 19.7796 10.2093 C 19.699 10.3889 19.6199 10.5686 19.5377 10.7474 C 19.1481 11.6009 19.4499 12.5278 20.3856 12.832 C 21.0914 13.0612 21.7956 13.2943 22.4934 13.545 C 22.8255 13.6648 23.1552 13.7877 23.4842 13.9171 C 23.6455 13.9801 23.8051 14.0456 23.9656 14.1119 C 23.976 14.1167 23.9872 14.1215 24.0008 14.127 C 24.095 14.1686 24.1892 14.2101 24.2834 14.2524 C 24.9341 14.5462 25.572 14.8712 26.1828 15.2424 C 26.4926 15.43 26.7968 15.6272 27.0906 15.8388 C 27.1233 15.8628 27.156 15.8867 27.1888 15.9107 C 27.2143 15.9282 27.2542 15.957 27.2734 15.973 C 27.2734 15.973 27.2734 15.973 27.2742 15.9738 C 27.2774 15.9761 27.2806 15.9785 27.2838 15.9809 C 27.2806 15.9785 27.279 15.9777 27.2758 15.9754 C 27.4299 16.1007 27.5816 16.2268 27.7293 16.3594 C 27.9824 16.5861 28.2235 16.8257 28.4511 17.0779 C 28.5676 17.2073 28.6778 17.3398 28.7888 17.474 C 28.792 17.4779 28.7936 17.4811 28.7968 17.4859 C 28.8726 17.5921 28.9493 17.6983 29.0219 17.8077 C 29.2215 18.1063 29.4019 18.4177 29.564 18.7386 C 29.6047 18.8185 29.6439 18.8991 29.6822 18.9805 C 29.6766 18.9694 29.7477 19.1298 29.7788 19.1977 C 29.7972 19.2448 29.8195 19.2999 29.8251 19.3151 C 29.873 19.4412 29.9185 19.5682 29.9624 19.6959 C 30.0854 20.0592 30.1892 20.4288 30.2746 20.8025 C 30.3153 20.9789 30.352 21.1562 30.384 21.3342 C 30.4008 21.4237 30.4159 21.5131 30.4303 21.6025 C 30.4391 21.656 30.4598 21.8229 30.4646 21.8492 C 30.5517 22.658 30.578 23.4692 30.5453 24.2827 C 30.5253 24.7913 30.4838 25.2991 30.4279 25.8053 C 30.4167 25.9067 30.4039 26.0081 30.3928 26.1087 L 30.3736 26.2604 C 30.4023 26.0496 30.3888 26.151 30.3329 26.5638 C 30.3025 26.8057 30.277 27.0484 30.2443 27.2903 C 30.2403 27.3167 30.2355 27.351 30.2283 27.3981 C 30.2099 27.525 30.1916 27.652 30.1724 27.7781 C 30.1341 28.0312 30.0934 28.2851 30.0518 28.5374 C 29.9648 29.0684 29.8714 29.5977 29.778 30.1278 C 29.6582 30.8097 29.9608 31.5921 30.7057 31.7622 C 31.3884 31.9179 32.1668 31.557 32.3401 30.8344 C 33.2407 27.0803 34.0135 23.1793 32.9093 19.3734 L 32.9117 19.375 Z" stroke-linecap="round" />
</g>
<g transform="matrix(0.83 0 0 0.83 551.52 503.33)"  >
<path style="stroke: rgb(0,0,0); stroke-width: 0; stroke-dasharray: none; stroke-linecap: butt; stroke-dashoffset: 0; stroke-linejoin: miter; stroke-miterlimit: 4; fill: rgb(248,249,250); fill-rule: nonzero; opacity: 1;" vector-effect="non-scaling-stroke"  transform=" translate(-17, -16.32)" d="M 32.9117 19.375 C 32.4103 17.6472 31.5257 16.0488 30.269 14.7562 C 29.1584 13.6145 27.794 12.7235 26.3616 12.0408 C 25.1576 11.4668 23.9097 11.0021 22.6459 10.5813 C 23.2678 8.88633 23.6367 7.13064 23.2519 5.2991 C 22.7976 3.13304 21.1584 1.3486 18.9445 0.962976 C 16.78 0.58613 14.3065 1.09312 12.4279 2.22605 C 10.5357 3.36697 9.08339 5.42605 9.13449 7.6991 C 9.16962 9.26876 9.86662 10.6197 10.7936 11.8221 C 8.25225 12.1502 5.76762 12.9973 3.8794 14.7801 C 1.24546 17.2672 0.372809 21.054 0.574805 24.5606 C 0.64267 25.7342 0.847061 26.9079 1.08499 28.0576 C 1.3261 29.2209 1.63748 30.3402 2.16842 31.4037 C 2.46063 31.9881 3.34526 31.6831 3.35405 31.0827 C 3.38039 29.1809 2.83828 27.3095 2.70335 25.4117 C 2.58279 23.7278 2.59796 22.1191 3.00674 20.5318 C 3.37002 19.1211 3.98399 17.7957 4.98119 16.7674 C 5.96802 15.7494 7.19756 15.1035 8.53009 14.7107 C 8.94766 14.5877 9.37241 14.4871 9.80035 14.4057 C 10.0063 14.3666 10.2123 14.333 10.4191 14.3019 C 10.4295 14.3003 10.4654 14.2955 10.4958 14.2923 C 10.6123 14.2787 10.7289 14.2652 10.8455 14.2532 C 11.7189 14.1662 12.5972 14.1478 13.4746 14.1726 C 14.6067 14.2053 15.0874 12.7897 14.3664 12.0185 C 14.0758 11.7071 13.7868 11.3941 13.5089 11.0708 C 13.3828 10.9239 13.2582 10.7754 13.1369 10.6245 C 13.1193 10.6021 13.057 10.5207 13.0307 10.4863 C 12.966 10.3985 12.9014 10.3107 12.8391 10.2213 C 12.6235 9.91148 12.4239 9.58972 12.253 9.2528 C 12.2043 9.15699 12.1572 9.05958 12.1133 8.96058 C 12.1077 8.94302 12.1006 8.92146 12.091 8.89431 C 12.0199 8.68194 11.9521 8.47036 11.9018 8.2516 C 11.885 8.18054 11.8714 8.10868 11.8586 8.03763 C 11.8546 8.00649 11.8491 7.96577 11.8491 7.94581 C 11.8451 7.73743 11.8379 7.53304 11.8499 7.32465 C 11.8499 7.31427 11.8507 7.30629 11.8515 7.29751 C 11.873 7.18334 11.8962 7.06996 11.9257 6.95659 C 11.9465 6.87755 11.9696 6.7985 11.9952 6.72026 C 12.0119 6.66916 12.079 6.49591 12.0718 6.50389 C 12.1461 6.34262 12.2315 6.18613 12.3233 6.03443 C 12.3664 5.96337 12.4111 5.89312 12.4574 5.82445 C 12.4686 5.80769 12.6115 5.62485 12.6067 5.62485 C 12.693 5.52345 12.7816 5.42365 12.8758 5.32864 C 12.9636 5.24002 13.0538 5.15379 13.1473 5.07076 C 13.1736 5.04761 13.3229 4.92785 13.3341 4.91587 C 13.6311 4.7003 13.9481 4.51028 14.2754 4.34661 C 14.3824 4.29312 14.491 4.24122 14.6004 4.19332 C 14.6195 4.18613 14.6419 4.17814 14.6706 4.16777 C 14.899 4.08393 15.1273 4.00569 15.3612 3.93783 C 15.7652 3.82046 16.174 3.73503 16.5884 3.66318 C 16.6147 3.65839 16.6347 3.65519 16.653 3.652 C 16.7704 3.63763 16.8878 3.62645 17.0051 3.61687 C 17.2247 3.6001 17.4451 3.59132 17.6646 3.59451 C 17.8491 3.59691 18.0367 3.60409 18.2211 3.62405 C 18.253 3.62964 18.3153 3.64082 18.3377 3.64641 C 18.463 3.67834 18.59 3.7007 18.7145 3.73583 C 18.7848 3.75579 19.0914 3.87475 19.0475 3.8484 C 19.1433 3.89471 19.2383 3.94421 19.3293 3.9993 C 19.3716 4.02485 19.5552 4.15419 19.5329 4.13024 C 19.6367 4.21807 19.7341 4.31308 19.8275 4.41208 C 19.877 4.46477 19.9225 4.51906 19.9688 4.57415 C 19.984 4.59491 20 4.61727 20.0079 4.63084 C 20.1069 4.7993 20.2083 4.96298 20.3002 5.13543 C 20.3129 5.15938 20.3233 5.17775 20.3313 5.19292 C 20.3728 5.2991 20.4111 5.40689 20.4455 5.51547 C 20.5109 5.72465 20.5588 5.93543 20.6035 6.1494 C 20.6075 6.16697 20.6107 6.18134 20.6131 6.19491 C 20.6251 6.31228 20.6347 6.43044 20.6403 6.5486 C 20.6507 6.78413 20.6459 7.02046 20.6291 7.25599 C 20.6235 7.33264 20.6155 7.40928 20.6075 7.48593 C 20.6035 7.48833 20.5572 7.78693 20.5493 7.82685 C 20.4447 8.35619 20.2898 8.87355 20.1069 9.38054 C 20.0207 9.61926 19.9289 9.85559 19.8315 10.0895 C 19.8163 10.1239 19.7844 10.1981 19.7796 10.2093 C 19.699 10.3889 19.6199 10.5686 19.5377 10.7474 C 19.1481 11.6009 19.4499 12.5278 20.3856 12.832 C 21.0914 13.0612 21.7956 13.2943 22.4934 13.545 C 22.8255 13.6648 23.1552 13.7877 23.4842 13.9171 C 23.6455 13.9801 23.8051 14.0456 23.9656 14.1119 C 23.976 14.1167 23.9872 14.1215 24.0008 14.127 C 24.095 14.1686 24.1892 14.2101 24.2834 14.2524 C 24.9341 14.5462 25.572 14.8712 26.1828 15.2424 C 26.4926 15.43 26.7968 15.6272 27.0906 15.8388 C 27.1233 15.8628 27.156 15.8867 27.1888 15.9107 C 27.2143 15.9282 27.2542 15.957 27.2734 15.973 C 27.2734 15.973 27.2734 15.973 27.2742 15.9738 C 27.2774 15.9761 27.2806 15.9785 27.2838 15.9809 C 27.2806 15.9785 27.279 15.9777 27.2758 15.9754 C 27.4299 16.1007 27.5816 16.2268 27.7293 16.3594 C 27.9824 16.5861 28.2235 16.8257 28.4511 17.0779 C 28.5676 17.2073 28.6778 17.3398 28.7888 17.474 C 28.792 17.4779 28.7936 17.4811 28.7968 17.4859 C 28.8726 17.5921 28.9493 17.6983 29.0219 17.8077 C 29.2215 18.1063 29.4019 18.4177 29.564 18.7386 C 29.6047 18.8185 29.6439 18.8991 29.6822 18.9805 C 29.6766 18.9694 29.7477 19.1298 29.7788 19.1977 C 29.7972 19.2448 29.8195 19.2999 29.8251 19.3151 C 29.873 19.4412 29.9185 19.5682 29.9624 19.6959 C 30.0854 20.0592 30.1892 20.4288 30.2746 20.8025 C 30.3153 20.9789 30.352 21.1562 30.384 21.3342 C 30.4008 21.4237 30.4159 21.5131 30.4303 21.6025 C 30.4391 21.656 30.4598 21.8229 30.4646 21.8492 C 30.5517 22.658 30.578 23.4692 30.5453 24.2827 C 30.5253 24.7913 30.4838 25.2991 30.4279 25.8053 C 30.4167 25.9067 30.4039 26.0081 30.3928 26.1087 L 30.3736 26.2604 C 30.4023 26.0496 30.3888 26.151 30.3329 26.5638 C 30.3025 26.8057 30.277 27.0484 30.2443 27.2903 C 30.2403 27.3167 30.2355 27.351 30.2283 27.3981 C 30.2099 27.525 30.1916 27.652 30.1724 27.7781 C 30.1341 28.0312 30.0934 28.2851 30.0518 28.5374 C 29.9648 29.0684 29.8714 29.5977 29.778 30.1278 C 29.6582 30.8097 29.9608 31.5921 30.7057 31.7622 C 31.3884 31.9179 32.1668 31.557 32.3401 30.8344 C 33.2407 27.0803 34.0135 23.1793 32.9093 19.3734 L 32.9117 19.375 Z" stroke-linecap="round" />
</g>
<g transform="matrix(1.11 0 0 1.14 533.14 504.86)"  >
<path style="stroke: rgb(0,0,0); stroke-width: 0; stroke-dasharray: none; stroke-linecap: butt; stroke-dashoffset: 0; stroke-linejoin: miter; stroke-miterlimit: 4; fill: rgb(248,249,250); fill-rule: nonzero; opacity: 1;" vector-effect="non-scaling-stroke"  transform=" translate(-17, -16.32)" d="M 32.9117 19.375 C 32.4103 17.6472 31.5257 16.0488 30.269 14.7562 C 29.1584 13.6145 27.794 12.7235 26.3616 12.0408 C 25.1576 11.4668 23.9097 11.0021 22.6459 10.5813 C 23.2678 8.88633 23.6367 7.13064 23.2519 5.2991 C 22.7976 3.13304 21.1584 1.3486 18.9445 0.962976 C 16.78 0.58613 14.3065 1.09312 12.4279 2.22605 C 10.5357 3.36697 9.08339 5.42605 9.13449 7.6991 C 9.16962 9.26876 9.86662 10.6197 10.7936 11.8221 C 8.25225 12.1502 5.76762 12.9973 3.8794 14.7801 C 1.24546 17.2672 0.372809 21.054 0.574805 24.5606 C 0.64267 25.7342 0.847061 26.9079 1.08499 28.0576 C 1.3261 29.2209 1.63748 30.3402 2.16842 31.4037 C 2.46063 31.9881 3.34526 31.6831 3.35405 31.0827 C 3.38039 29.1809 2.83828 27.3095 2.70335 25.4117 C 2.58279 23.7278 2.59796 22.1191 3.00674 20.5318 C 3.37002 19.1211 3.98399 17.7957 4.98119 16.7674 C 5.96802 15.7494 7.19756 15.1035 8.53009 14.7107 C 8.94766 14.5877 9.37241 14.4871 9.80035 14.4057 C 10.0063 14.3666 10.2123 14.333 10.4191 14.3019 C 10.4295 14.3003 10.4654 14.2955 10.4958 14.2923 C 10.6123 14.2787 10.7289 14.2652 10.8455 14.2532 C 11.7189 14.1662 12.5972 14.1478 13.4746 14.1726 C 14.6067 14.2053 15.0874 12.7897 14.3664 12.0185 C 14.0758 11.7071 13.7868 11.3941 13.5089 11.0708 C 13.3828 10.9239 13.2582 10.7754 13.1369 10.6245 C 13.1193 10.6021 13.057 10.5207 13.0307 10.4863 C 12.966 10.3985 12.9014 10.3107 12.8391 10.2213 C 12.6235 9.91148 12.4239 9.58972 12.253 9.2528 C 12.2043 9.15699 12.1572 9.05958 12.1133 8.96058 C 12.1077 8.94302 12.1006 8.92146 12.091 8.89431 C 12.0199 8.68194 11.9521 8.47036 11.9018 8.2516 C 11.885 8.18054 11.8714 8.10868 11.8586 8.03763 C 11.8546 8.00649 11.8491 7.96577 11.8491 7.94581 C 11.8451 7.73743 11.8379 7.53304 11.8499 7.32465 C 11.8499 7.31427 11.8507 7.30629 11.8515 7.29751 C 11.873 7.18334 11.8962 7.06996 11.9257 6.95659 C 11.9465 6.87755 11.9696 6.7985 11.9952 6.72026 C 12.0119 6.66916 12.079 6.49591 12.0718 6.50389 C 12.1461 6.34262 12.2315 6.18613 12.3233 6.03443 C 12.3664 5.96337 12.4111 5.89312 12.4574 5.82445 C 12.4686 5.80769 12.6115 5.62485 12.6067 5.62485 C 12.693 5.52345 12.7816 5.42365 12.8758 5.32864 C 12.9636 5.24002 13.0538 5.15379 13.1473 5.07076 C 13.1736 5.04761 13.3229 4.92785 13.3341 4.91587 C 13.6311 4.7003 13.9481 4.51028 14.2754 4.34661 C 14.3824 4.29312 14.491 4.24122 14.6004 4.19332 C 14.6195 4.18613 14.6419 4.17814 14.6706 4.16777 C 14.899 4.08393 15.1273 4.00569 15.3612 3.93783 C 15.7652 3.82046 16.174 3.73503 16.5884 3.66318 C 16.6147 3.65839 16.6347 3.65519 16.653 3.652 C 16.7704 3.63763 16.8878 3.62645 17.0051 3.61687 C 17.2247 3.6001 17.4451 3.59132 17.6646 3.59451 C 17.8491 3.59691 18.0367 3.60409 18.2211 3.62405 C 18.253 3.62964 18.3153 3.64082 18.3377 3.64641 C 18.463 3.67834 18.59 3.7007 18.7145 3.73583 C 18.7848 3.75579 19.0914 3.87475 19.0475 3.8484 C 19.1433 3.89471 19.2383 3.94421 19.3293 3.9993 C 19.3716 4.02485 19.5552 4.15419 19.5329 4.13024 C 19.6367 4.21807 19.7341 4.31308 19.8275 4.41208 C 19.877 4.46477 19.9225 4.51906 19.9688 4.57415 C 19.984 4.59491 20 4.61727 20.0079 4.63084 C 20.1069 4.7993 20.2083 4.96298 20.3002 5.13543 C 20.3129 5.15938 20.3233 5.17775 20.3313 5.19292 C 20.3728 5.2991 20.4111 5.40689 20.4455 5.51547 C 20.5109 5.72465 20.5588 5.93543 20.6035 6.1494 C 20.6075 6.16697 20.6107 6.18134 20.6131 6.19491 C 20.6251 6.31228 20.6347 6.43044 20.6403 6.5486 C 20.6507 6.78413 20.6459 7.02046 20.6291 7.25599 C 20.6235 7.33264 20.6155 7.40928 20.6075 7.48593 C 20.6035 7.48833 20.5572 7.78693 20.5493 7.82685 C 20.4447 8.35619 20.2898 8.87355 20.1069 9.38054 C 20.0207 9.61926 19.9289 9.85559 19.8315 10.0895 C 19.8163 10.1239 19.7844 10.1981 19.7796 10.2093 C 19.699 10.3889 19.6199 10.5686 19.5377 10.7474 C 19.1481 11.6009 19.4499 12.5278 20.3856 12.832 C 21.0914 13.0612 21.7956 13.2943 22.4934 13.545 C 22.8255 13.6648 23.1552 13.7877 23.4842 13.9171 C 23.6455 13.9801 23.8051 14.0456 23.9656 14.1119 C 23.976 14.1167 23.9872 14.1215 24.0008 14.127 C 24.095 14.1686 24.1892 14.2101 24.2834 14.2524 C 24.9341 14.5462 25.572 14.8712 26.1828 15.2424 C 26.4926 15.43 26.7968 15.6272 27.0906 15.8388 C 27.1233 15.8628 27.156 15.8867 27.1888 15.9107 C 27.2143 15.9282 27.2542 15.957 27.2734 15.973 C 27.2734 15.973 27.2734 15.973 27.2742 15.9738 C 27.2774 15.9761 27.2806 15.9785 27.2838 15.9809 C 27.2806 15.9785 27.279 15.9777 27.2758 15.9754 C 27.4299 16.1007 27.5816 16.2268 27.7293 16.3594 C 27.9824 16.5861 28.2235 16.8257 28.4511 17.0779 C 28.5676 17.2073 28.6778 17.3398 28.7888 17.474 C 28.792 17.4779 28.7936 17.4811 28.7968 17.4859 C 28.8726 17.5921 28.9493 17.6983 29.0219 17.8077 C 29.2215 18.1063 29.4019 18.4177 29.564 18.7386 C 29.6047 18.8185 29.6439 18.8991 29.6822 18.9805 C 29.6766 18.9694 29.7477 19.1298 29.7788 19.1977 C 29.7972 19.2448 29.8195 19.2999 29.8251 19.3151 C 29.873 19.4412 29.9185 19.5682 29.9624 19.6959 C 30.0854 20.0592 30.1892 20.4288 30.2746 20.8025 C 30.3153 20.9789 30.352 21.1562 30.384 21.3342 C 30.4008 21.4237 30.4159 21.5131 30.4303 21.6025 C 30.4391 21.656 30.4598 21.8229 30.4646 21.8492 C 30.5517 22.658 30.578 23.4692 30.5453 24.2827 C 30.5253 24.7913 30.4838 25.2991 30.4279 25.8053 C 30.4167 25.9067 30.4039 26.0081 30.3928 26.1087 L 30.3736 26.2604 C 30.4023 26.0496 30.3888 26.151 30.3329 26.5638 C 30.3025 26.8057 30.277 27.0484 30.2443 27.2903 C 30.2403 27.3167 30.2355 27.351 30.2283 27.3981 C 30.2099 27.525 30.1916 27.652 30.1724 27.7781 C 30.1341 28.0312 30.0934 28.2851 30.0518 28.5374 C 29.9648 29.0684 29.8714 29.5977 29.778 30.1278 C 29.6582 30.8097 29.9608 31.5921 30.7057 31.7622 C 31.3884 31.9179 32.1668 31.557 32.3401 30.8344 C 33.2407 27.0803 34.0135 23.1793 32.9093 19.3734 L 32.9117 19.375 Z" stroke-linecap="round" />
</g>
</svg>