<?xml version="1.0"?>
<svg width="40" height="40" xmlns="http://www.w3.org/2000/svg" xmlns:svg="http://www.w3.org/2000/svg">
 <defs>
  <clipPath id="clip0_2777_7196">
   <rect fill="white" height="40" id="svg_1" width="40"/>
  </clipPath>
 </defs>
 <g class="layer">
  <title>Layer 1</title>
  <g clip-path="url(#clip0_2777_7196)" id="svg_2"/>
  <g clip-path="url(#clip0_2777_7196)" id="svg_4">
   <path d="m39.63,13.9c-0.33,-1.28 -0.9,-2.47 -1.72,-3.43c-0.72,-0.85 -1.62,-1.51 -2.55,-2.02c-0.78,-0.42 -1.6,-0.77 -2.42,-1.08c0.4,-1.25 0.65,-2.56 0.39,-3.91c-0.29,-1.61 -1.36,-2.93 -2.81,-3.22c-1.41,-0.27 -3.02,0.1 -4.24,0.94c-1.23,0.85 -2.18,2.37 -2.15,4.06c0.03,1.16 0.48,2.17 1.08,3.05c-1.66,0.24 -3.27,0.87 -4.5,2.19c-1.71,1.85 -2.29,4.65 -2.16,7.25c0.05,0.87 0.18,1.74 0.33,2.6c0.16,0.86 0.37,1.69 0.71,2.48c0.19,0.44 0.77,0.21 0.77,-0.24c0.02,-1.41 -0.33,-2.8 -0.42,-4.2c-0.08,-1.25 -0.07,-2.44 0.2,-3.62c0.23,-1.05 0.63,-2.02 1.28,-2.79c0.65,-0.76 1.45,-1.24 2.31,-1.53c0.27,-0.09 0.55,-0.16 0.83,-0.22c0.14,-0.03 0.27,-0.06 0.4,-0.08c0.01,0 0.03,0 0.05,-0.01c0.07,-0.01 0.15,-0.01 0.23,-0.03c0.57,-0.06 1.14,-0.07 1.71,-0.06c0.74,0.03 1.06,-1.02 0.59,-1.59c-0.19,-0.23 -0.38,-0.47 -0.56,-0.7c-0.08,-0.11 -0.16,-0.22 -0.24,-0.33c-0.01,-0.01 -0.05,-0.07 -0.07,-0.1c-0.04,-0.07 -0.08,-0.13 -0.12,-0.2c-0.14,-0.23 -0.27,-0.47 -0.38,-0.72c-0.03,-0.07 -0.06,-0.14 -0.09,-0.22c0,-0.01 -0.01,-0.03 -0.01,-0.05c-0.05,-0.16 -0.09,-0.31 -0.12,-0.47c-0.01,-0.05 -0.02,-0.1 -0.03,-0.16c-0.01,-0.02 -0.01,-0.05 -0.01,-0.07c0,-0.16 -0.01,-0.31 0,-0.47c0,-0.01 0,-0.01 0,-0.01c0.01,-0.09 0.03,-0.17 0.05,-0.25c0.01,-0.06 0.03,-0.12 0.05,-0.18c0.01,-0.04 0.05,-0.16 0.05,-0.16c0.05,-0.12 0.1,-0.23 0.16,-0.35c0.03,-0.05 0.06,-0.1 0.09,-0.16c0.01,-0.01 0.1,-0.15 0.1,-0.15c0.05,-0.07 0.11,-0.15 0.18,-0.22c0.05,-0.07 0.11,-0.13 0.18,-0.19c0.01,-0.01 0.11,-0.1 0.12,-0.11c0.2,-0.16 0.4,-0.3 0.62,-0.42c0.07,-0.04 0.14,-0.08 0.21,-0.12c0.01,0 0.03,-0.01 0.05,-0.01c0.15,-0.07 0.3,-0.12 0.45,-0.17c0.27,-0.09 0.53,-0.16 0.8,-0.21c0.01,0 0.03,0 0.04,-0.01c0.08,-0.01 0.16,-0.01 0.23,-0.02c0.14,-0.01 0.29,-0.02 0.42,-0.02c0.12,0.01 0.25,0.01 0.37,0.02c0.02,0.01 0.07,0.01 0.08,0.02c0.08,0.02 0.16,0.04 0.24,0.07c0.05,0.01 0.25,0.1 0.22,0.08c0.06,0.03 0.12,0.07 0.18,0.11c0.03,0.01 0.15,0.11 0.13,0.1c0.07,0.07 0.13,0.13 0.2,0.21c0.03,0.04 0.06,0.08 0.09,0.12c0.01,0.01 0.02,0.04 0.03,0.04c0.07,0.13 0.13,0.24 0.19,0.38c0.01,0.01 0.01,0.03 0.02,0.04c0.03,0.08 0.05,0.16 0.08,0.24c0.04,0.15 0.07,0.31 0.1,0.47c0.01,0.01 0.01,0.02 0.01,0.03c0.01,0.09 0.01,0.18 0.02,0.27c0.01,0.17 0.01,0.35 -0.01,0.53c-0.01,0.05 -0.01,0.11 -0.01,0.17c-0.01,0 -0.03,0.22 -0.04,0.25c-0.07,0.39 -0.17,0.77 -0.29,1.15c-0.06,0.18 -0.12,0.36 -0.18,0.53c-0.01,0.02 -0.03,0.08 -0.03,0.09c-0.05,0.13 -0.1,0.27 -0.16,0.4c-0.25,0.63 -0.06,1.32 0.55,1.54c0.46,0.17 0.92,0.34 1.37,0.53c0.22,0.08 0.44,0.18 0.65,0.27c0.11,0.04 0.22,0.1 0.32,0.14c0.01,0.01 0.01,0.01 0.02,0.01c0.06,0.03 0.12,0.06 0.18,0.09c0.42,0.22 0.84,0.46 1.24,0.73c0.2,0.14 0.4,0.29 0.59,0.44c0.02,0.01 0.05,0.04 0.07,0.05c0.01,0.01 0.04,0.04 0.05,0.04c0,0 0,0 0,0c0.01,0.01 0.01,0.01 0.01,0.01c0,0 0,0 0,0c0.1,0.09 0.2,0.19 0.29,0.28c0.16,0.17 0.32,0.35 0.47,0.53c0.08,0.1 0.15,0.19 0.22,0.29c0,0.01 0,0.01 0.01,0.01c0.05,0.07 0.1,0.16 0.14,0.24c0.13,0.22 0.25,0.45 0.35,0.69c0.03,0.06 0.05,0.12 0.08,0.18c0,-0.01 0.05,0.11 0.07,0.16c0.01,0.03 0.03,0.07 0.03,0.09c0.03,0.09 0.06,0.19 0.08,0.28c0.08,0.27 0.15,0.54 0.2,0.82c0.03,0.13 0.05,0.27 0.07,0.39c0.01,0.07 0.03,0.13 0.03,0.2c0.01,0.04 0.02,0.16 0.02,0.19c0.06,0.6 0.08,1.2 0.06,1.8c-0.01,0.38 -0.05,0.76 -0.08,1.13c-0.01,0.07 -0.02,0.15 -0.03,0.22l-0.01,0.11c0.02,-0.16 0.01,-0.08 -0.03,0.22c-0.02,0.19 -0.03,0.36 -0.06,0.54c0,0.02 0,0.04 -0.01,0.08c-0.01,0.09 -0.03,0.19 -0.04,0.28c-0.03,0.19 -0.05,0.38 -0.08,0.56c-0.06,0.39 -0.12,0.79 -0.18,1.18c-0.08,0.5 0.12,1.08 0.61,1.21c0.44,0.12 0.95,-0.15 1.06,-0.69c0.59,-2.78 1.09,-5.67 0.37,-8.5l0,0.01z" fill="#ffffff" id="svg_5"/>
  </g>
  <g clip-path="url(#clip0_2777_7196)" id="svg_6">
   <path d="m29.49,28.46c-0.45,-1.61 -1.24,-3.1 -2.38,-4.3c-1,-1.07 -2.23,-1.9 -3.52,-2.53c-1.08,-0.53 -2.21,-0.97 -3.34,-1.36c0.56,-1.57 0.89,-3.21 0.54,-4.92c-0.41,-2.02 -1.88,-3.68 -3.88,-4.04c-1.94,-0.34 -4.17,0.12 -5.86,1.18c-1.7,1.06 -3.02,2.98 -2.97,5.1c0.04,1.46 0.67,2.72 1.49,3.84c-2.29,0.31 -4.52,1.1 -6.22,2.76c-2.37,2.32 -3.16,5.84 -2.98,9.11c0.06,1.09 0.25,2.19 0.46,3.26c0.23,1.08 0.5,2.12 0.98,3.11c0.26,0.55 1.06,0.26 1.06,-0.3c0.03,-1.77 -0.46,-3.51 -0.59,-5.28c-0.11,-1.57 -0.09,-3.07 0.28,-4.55c0.32,-1.31 0.87,-2.54 1.77,-3.5c0.89,-0.95 2,-1.56 3.2,-1.92c0.38,-0.11 0.76,-0.2 1.14,-0.28c0.19,-0.04 0.37,-0.07 0.56,-0.1c0.01,0 0.05,0 0.07,-0.01c0.1,-0.01 0.21,-0.02 0.32,-0.04c0.78,-0.07 1.58,-0.09 2.36,-0.07c1.03,0.04 1.46,-1.29 0.81,-2c-0.26,-0.29 -0.52,-0.59 -0.77,-0.89c-0.12,-0.14 -0.23,-0.27 -0.33,-0.42c-0.02,-0.02 -0.07,-0.09 -0.1,-0.12c-0.05,-0.08 -0.12,-0.17 -0.17,-0.25c-0.2,-0.29 -0.38,-0.59 -0.53,-0.9c-0.05,-0.08 -0.08,-0.18 -0.13,-0.27c0,-0.02 -0.01,-0.04 -0.02,-0.07c-0.06,-0.2 -0.13,-0.39 -0.17,-0.6c-0.02,-0.07 -0.03,-0.13 -0.04,-0.2c-0.01,-0.03 -0.01,-0.07 -0.01,-0.08c0,-0.2 -0.01,-0.39 0,-0.59c0,-0.01 0,-0.01 0,-0.02c0.02,-0.11 0.05,-0.21 0.07,-0.32c0.02,-0.07 0.04,-0.15 0.06,-0.22c0.01,-0.05 0.07,-0.2 0.06,-0.2c0.07,-0.15 0.14,-0.29 0.23,-0.44c0.05,-0.07 0.08,-0.13 0.13,-0.2c0.01,-0.01 0.14,-0.19 0.14,-0.19c0.07,-0.09 0.15,-0.19 0.24,-0.27c0.07,-0.08 0.15,-0.17 0.24,-0.24c0.02,-0.02 0.15,-0.13 0.16,-0.14c0.27,-0.2 0.56,-0.38 0.86,-0.53c0.09,-0.06 0.19,-0.1 0.29,-0.15c0.02,0 0.04,-0.01 0.06,-0.02c0.21,-0.08 0.41,-0.15 0.62,-0.21c0.37,-0.11 0.73,-0.2 1.11,-0.26c0.02,0 0.04,0 0.05,-0.01c0.11,-0.01 0.22,-0.02 0.32,-0.03c0.19,-0.02 0.4,-0.03 0.59,-0.03c0.17,0.01 0.34,0.01 0.5,0.03c0.03,0.01 0.09,0.02 0.11,0.03c0.11,0.03 0.23,0.05 0.33,0.08c0.06,0.02 0.34,0.12 0.31,0.1c0.08,0.04 0.17,0.08 0.25,0.14c0.04,0.02 0.21,0.14 0.18,0.12c0.1,0.08 0.18,0.17 0.27,0.26c0.05,0.05 0.08,0.1 0.13,0.15c0.01,0.02 0.03,0.05 0.04,0.06c0.09,0.16 0.18,0.31 0.26,0.48c0.01,0.02 0.02,0.04 0.03,0.05c0.04,0.1 0.07,0.2 0.11,0.31c0.05,0.19 0.1,0.39 0.14,0.59c0.01,0.02 0.01,0.03 0.01,0.04c0.02,0.11 0.02,0.22 0.03,0.34c0.01,0.21 0.01,0.44 -0.01,0.66c-0.01,0.07 -0.01,0.14 -0.02,0.21c-0.01,0 -0.05,0.28 -0.05,0.32c-0.1,0.49 -0.23,0.97 -0.4,1.44c-0.08,0.22 -0.16,0.45 -0.25,0.66c-0.01,0.03 -0.05,0.1 -0.05,0.11c-0.07,0.17 -0.14,0.34 -0.22,0.5c-0.35,0.79 -0.08,1.66 0.77,1.94c0.63,0.21 1.27,0.43 1.89,0.67c0.31,0.1 0.6,0.22 0.89,0.34c0.15,0.06 0.3,0.12 0.44,0.18c0.01,0.01 0.02,0.01 0.03,0.02c0.08,0.04 0.17,0.07 0.25,0.11c0.59,0.28 1.16,0.58 1.71,0.92c0.28,0.18 0.56,0.36 0.82,0.56c0.03,0.02 0.06,0.05 0.09,0.07c0.02,0.02 0.05,0.05 0.07,0.06c0,0 0,0 0,0c0.01,0.01 0.01,0.01 0.01,0.01c0,0 0,0 0,0c0.14,0.11 0.27,0.23 0.41,0.35c0.23,0.21 0.44,0.44 0.65,0.67c0.11,0.12 0.21,0.24 0.31,0.36c0,0.01 0,0.01 0.01,0.02c0.06,0.09 0.14,0.2 0.2,0.3c0.18,0.28 0.34,0.57 0.49,0.87c0.04,0.07 0.07,0.15 0.11,0.22c0,-0.01 0.06,0.14 0.09,0.2c0.02,0.04 0.04,0.09 0.05,0.11c0.04,0.11 0.08,0.23 0.12,0.35c0.12,0.34 0.21,0.68 0.28,1.02c0.05,0.17 0.07,0.34 0.1,0.49c0.02,0.08 0.04,0.17 0.05,0.25c0.01,0.06 0.03,0.2 0.03,0.23c0.08,0.75 0.11,1.51 0.08,2.26c-0.02,0.48 -0.06,0.95 -0.11,1.43c-0.01,0.09 -0.03,0.19 -0.04,0.28l-0.02,0.14c0.03,-0.2 0.02,-0.1 -0.04,0.28c-0.03,0.23 -0.05,0.46 -0.08,0.68c0,0.03 0,0.06 -0.01,0.1c-0.02,0.11 -0.04,0.23 -0.05,0.35c-0.04,0.23 -0.07,0.48 -0.11,0.71c-0.08,0.49 -0.16,0.99 -0.24,1.48c-0.11,0.63 0.16,1.36 0.84,1.52c0.61,0.15 1.31,-0.19 1.47,-0.87c0.81,-3.49 1.5,-7.13 0.51,-10.68l0,0.01z" fill="#ffffff" id="svg_7"/>
  </g>
  <g clip-path="url(#clip0_2777_7196)" id="svg_8">
   <path d="m20.14,12.8c-0.31,-1.19 -0.85,-2.29 -1.62,-3.18c-0.68,-0.79 -1.52,-1.4 -2.4,-1.87c-0.74,-0.39 -1.5,-0.71 -2.27,-1c0.38,-1.16 0.61,-2.37 0.37,-3.63c-0.28,-1.49 -1.28,-2.72 -2.64,-2.98c-1.32,-0.25 -2.84,0.09 -3.99,0.87c-1.16,0.78 -2.05,2.2 -2.02,3.76c0.02,1.08 0.45,2.01 1.02,2.83c-1.56,0.23 -3.08,0.81 -4.23,2.03c-1.61,1.71 -2.15,4.31 -2.03,6.72c0.04,0.8 0.17,1.62 0.31,2.41c0.15,0.8 0.34,1.57 0.67,2.3c0.18,0.41 0.72,0.19 0.72,-0.22c0.02,-1.31 -0.31,-2.59 -0.4,-3.9c-0.07,-1.15 -0.06,-2.26 0.19,-3.35c0.22,-0.97 0.59,-1.88 1.21,-2.58c0.61,-0.7 1.36,-1.15 2.18,-1.42c0.26,-0.08 0.51,-0.15 0.78,-0.21c0.13,-0.03 0.25,-0.05 0.38,-0.08c0.01,0 0.03,0 0.05,-0.01c0.07,-0.01 0.14,-0.01 0.21,-0.03c0.53,-0.05 1.07,-0.07 1.61,-0.05c0.7,0.03 0.99,-0.95 0.55,-1.48c-0.18,-0.21 -0.36,-0.43 -0.53,-0.65c-0.08,-0.1 -0.15,-0.2 -0.23,-0.31c-0.01,-0.01 -0.05,-0.07 -0.07,-0.09c-0.04,-0.06 -0.08,-0.12 -0.12,-0.19c-0.13,-0.21 -0.26,-0.43 -0.36,-0.67c-0.03,-0.06 -0.06,-0.13 -0.09,-0.2c0,-0.01 -0.01,-0.03 -0.01,-0.05c-0.04,-0.14 -0.09,-0.29 -0.12,-0.44c-0.01,-0.05 -0.02,-0.1 -0.02,-0.14c-0.01,-0.02 -0.01,-0.05 -0.01,-0.06c0,-0.14 -0.01,-0.29 0,-0.43c0,-0.01 0,-0.01 0,-0.01c0.01,-0.08 0.03,-0.16 0.05,-0.23c0.01,-0.05 0.02,-0.11 0.04,-0.16c0.01,-0.03 0.05,-0.15 0.04,-0.15c0.05,-0.11 0.1,-0.21 0.15,-0.32c0.03,-0.05 0.06,-0.1 0.09,-0.14c0.01,-0.01 0.09,-0.14 0.09,-0.14c0.05,-0.07 0.1,-0.14 0.17,-0.2c0.05,-0.06 0.1,-0.12 0.17,-0.18c0.01,-0.01 0.1,-0.1 0.11,-0.1c0.18,-0.15 0.38,-0.28 0.58,-0.39c0.06,-0.04 0.13,-0.08 0.2,-0.11c0.01,0 0.02,-0.01 0.04,-0.01c0.14,-0.06 0.28,-0.11 0.42,-0.16c0.25,-0.08 0.5,-0.14 0.75,-0.19c0.01,0 0.02,0 0.04,-0.01c0.07,-0.01 0.15,-0.01 0.22,-0.02c0.13,-0.01 0.27,-0.02 0.4,-0.02c0.12,0.01 0.23,0.01 0.34,0.02c0.02,0.01 0.06,0.01 0.07,0.02c0.07,0.02 0.15,0.03 0.23,0.06c0.04,0.01 0.23,0.09 0.21,0.08c0.06,0.03 0.12,0.06 0.17,0.1c0.02,0.01 0.14,0.1 0.12,0.09c0.07,0.06 0.12,0.12 0.18,0.19c0.03,0.03 0.06,0.08 0.09,0.11c0.01,0.01 0.02,0.03 0.02,0.04c0.06,0.12 0.12,0.23 0.18,0.35c0.01,0.01 0.01,0.03 0.02,0.03c0.02,0.08 0.05,0.15 0.07,0.23c0.04,0.14 0.07,0.29 0.09,0.43c0.01,0.01 0.01,0.02 0.01,0.03c0.01,0.08 0.01,0.16 0.02,0.25c0.01,0.16 0.01,0.32 -0.01,0.49c-0.01,0.05 -0.01,0.1 -0.01,0.16c-0.01,0 -0.03,0.21 -0.04,0.23c-0.07,0.36 -0.16,0.71 -0.27,1.07c-0.06,0.16 -0.11,0.33 -0.17,0.49c-0.01,0.02 -0.03,0.08 -0.03,0.08c-0.05,0.12 -0.1,0.25 -0.15,0.37c-0.24,0.58 -0.06,1.22 0.52,1.43c0.43,0.16 0.86,0.32 1.29,0.49c0.21,0.08 0.41,0.16 0.61,0.25c0.1,0.04 0.2,0.09 0.3,0.13c0.01,0.01 0.01,0.01 0.02,0.01c0.06,0.03 0.12,0.05 0.17,0.08c0.4,0.21 0.79,0.43 1.16,0.68c0.19,0.13 0.38,0.27 0.56,0.41c0.02,0.01 0.04,0.03 0.06,0.05c0.01,0.01 0.04,0.03 0.05,0.04c0,0 0,0 0,0c0.01,0.01 0.01,0.01 0.01,0.01c0,0 0,0 0,0c0.09,0.08 0.18,0.17 0.28,0.26c0.15,0.16 0.3,0.32 0.44,0.49c0.07,0.09 0.14,0.18 0.21,0.27c0,0.01 0,0.01 0.01,0.01c0.04,0.07 0.09,0.14 0.13,0.22c0.12,0.21 0.23,0.42 0.33,0.64c0.02,0.05 0.05,0.11 0.07,0.16c0,-0.01 0.04,0.1 0.06,0.15c0.01,0.03 0.02,0.07 0.03,0.08c0.02,0.08 0.06,0.17 0.08,0.26c0.08,0.25 0.14,0.5 0.19,0.76c0.03,0.12 0.05,0.25 0.07,0.36c0.01,0.06 0.02,0.12 0.03,0.19c0.01,0.04 0.02,0.15 0.02,0.17c0.06,0.56 0.07,1.11 0.06,1.67c-0.01,0.35 -0.04,0.7 -0.07,1.05c-0.01,0.07 -0.02,0.14 -0.02,0.21l-0.01,0.1c0.02,-0.14 0.01,-0.08 -0.02,0.21c-0.02,0.17 -0.03,0.34 -0.06,0.5c0,0.02 0,0.04 -0.01,0.08c-0.01,0.08 -0.02,0.17 -0.04,0.26c-0.02,0.17 -0.05,0.35 -0.07,0.52c-0.06,0.36 -0.11,0.73 -0.17,1.09c-0.07,0.47 0.11,1 0.57,1.12c0.42,0.11 0.89,-0.14 1,-0.64c0.55,-2.58 1.02,-5.26 0.35,-7.88l0,0.01z" fill="#ffffff" id="svg_9"/>
  </g>
 </g>
</svg>